HIERARCHY
ROOT Hips
{
	OFFSET 0.000000 88.474243 0.000000
	CHANNELS 6 Xposition Yposition Zposition Zrotation Yrotation Xrotation 
	JOINT Hips_Spine
	{
		OFFSET 0.000000 0.000000 0.000000
		CHANNELS 3 Zrotation Yrotation Xrotation
		JOINT Spine
		{
			OFFSET 0.005100 8.711998 -0.691000
			CHANNELS 3 Zrotation Yrotation Xrotation
			JOINT Spine1
			{
				OFFSET -0.009200 8.660301 -1.275000
				CHANNELS 3 Zrotation Yrotation Xrotation
				JOINT Spine2
				{
					OFFSET 0.006300 9.852501 -1.857000
					CHANNELS 3 Zrotation Yrotation Xrotation
					JOINT Spine2_Neck
					{
						OFFSET 0.000000 0.000000 0.000000
						CHANNELS 3 Zrotation Yrotation Xrotation
						JOINT Neck
						{
							OFFSET 0.016300 11.420799 -0.263300
							CHANNELS 3 Zrotation Yrotation Xrotation
							End Site #name: Head
							{
								OFFSET -0.019200 9.262405 2.362500
							}
						}
					}
					JOINT Spine2_LeftShoulder
					{
						OFFSET 0.000000 0.000000 0.000000
						CHANNELS 3 Zrotation Yrotation Xrotation
						JOINT LeftShoulder
						{
							OFFSET 5.616900 6.732201 -0.345700
							CHANNELS 3 Zrotation Yrotation Xrotation
							JOINT LeftArm
							{
								OFFSET 10.664888 -0.183372 -2.440700
								CHANNELS 3 Zrotation Yrotation Xrotation
								JOINT LeftForeArm
								{
									OFFSET 27.459126 0.000000 0.000000
									CHANNELS 3 Zrotation Yrotation Xrotation
									End Site #name: LeftHand
									{
										OFFSET 21.306858 0.000000 0.000000
									}
								}
							}
						}
					}
					JOINT Spine2_RightShoulder
					{
						OFFSET 0.000000 0.000000 0.000000
						CHANNELS 3 Zrotation Yrotation Xrotation
						JOINT RightShoulder
						{
							OFFSET -5.580300 6.737503 -0.344400
							CHANNELS 3 Zrotation Yrotation Xrotation
							JOINT RightArm
							{
								OFFSET -10.679335 -0.188484 -2.383900
								CHANNELS 3 Zrotation Yrotation Xrotation
								JOINT RightForeArm
								{
									OFFSET -27.503529 0.000000 0.000000
									CHANNELS 3 Zrotation Yrotation Xrotation
									End Site #name: RightHand
									{
										OFFSET -21.306808 0.000000 0.000000
									}
								}
							}
						}
					}
				}
			}
		}
	}
	JOINT Hips_LeftUpLeg
	{
		OFFSET 0.000000 0.000000 0.000000
		CHANNELS 3 Zrotation Yrotation Xrotation
		JOINT LeftUpLeg
		{
			OFFSET 6.857700 -6.739601 0.312100
			CHANNELS 3 Zrotation Yrotation Xrotation
			JOINT LeftLeg
			{
				OFFSET -0.367590 -34.731552 -4.572400
				CHANNELS 3 Zrotation Yrotation Xrotation
				End Site #name: LeftFoot
				{
					OFFSET 0.367590 -34.656704 -6.067400
				}
			}
		}
	}
	JOINT Hips_RightUpLeg
	{
		OFFSET 0.000000 0.000000 0.000000
		CHANNELS 3 Zrotation Yrotation Xrotation
		JOINT RightUpLeg
		{
			OFFSET -6.876100 -6.733299 0.301000
			CHANNELS 3 Zrotation Yrotation Xrotation
			JOINT RightLeg
			{
				OFFSET 0.347353 -34.795158 -4.515900
				CHANNELS 3 Zrotation Yrotation Xrotation
				End Site #name: RightFoot
				{
					OFFSET -0.347353 -34.589367 -6.070300
				}
			}
		}
	}
}
MOTION
Frames: 6
Frame Time: 0.041667
0.485852 0.751360 -1.161783 1.996835 -6.558284 -6.982446 -0.000000 0.000000 -0.000000 -2.942952 -0.306262 -2.984759 2.138656 -1.941597 -6.152978 0.000000 0.000000 0.000000 2.582953 -1.408833 -5.995241 3.376972 -4.279805 -4.072424 1.095444 -1.708798 -6.774756 -18.139853 -0.222844 9.622324 -53.981960 12.802403 -3.909822 -0.541479 -21.146824 7.977798 1.566567 -1.748070 -3.300057 3.548705 5.843800 1.424125 67.308251 -1.276418 -8.195101 0.365872 46.862761 -0.724789 -0.000000 -0.000000 -0.000000 -9.925266 26.056572 -1.352566 -1.961095 1.425245 18.305649 0.000000 0.000000 0.000000 -6.939556 7.182651 -19.237232 4.939280 -4.000740 15.703250 
0.264128 0.752642 -1.241964 1.753283 -7.560604 -7.076058 -0.000000 0.000000 -0.000000 -1.939799 -0.367980 -3.719592 2.302399 -1.968463 -6.081932 0.000000 0.000000 0.000000 2.737368 -1.360114 -5.950154 3.281350 -4.320679 -3.816511 1.276243 -1.660469 -6.666973 -17.584140 -0.292497 9.742219 -54.951623 13.748655 -4.549378 -0.555909 -21.736575 7.830745 1.727425 -1.706798 -3.303895 3.629059 5.971263 1.462003 67.141697 -1.339661 -7.961783 0.376999 46.824058 -0.722034 -0.000000 -0.000000 -0.000000 -9.297943 26.245520 -1.027261 -2.068402 1.171233 18.597472 0.000000 0.000000 0.000000 -6.174820 7.562045 -19.487527 5.095679 -4.284810 15.737783 
0.062878 0.750672 -1.322839 1.467617 -8.158128 -7.118843 -0.000000 0.000000 -0.000000 -0.916797 -0.422534 -4.500994 2.485649 -1.981277 -5.993968 0.000000 0.000000 0.000000 2.906796 -1.309206 -5.900447 3.239440 -4.376193 -3.529934 1.472548 -1.611377 -6.539911 -17.044936 -0.374360 9.833771 -55.898314 14.618338 -5.182400 -0.575310 -22.345649 7.690750 1.906828 -1.666090 -3.303955 3.737218 6.087990 1.487799 66.984889 -1.358157 -7.715505 0.384033 46.820349 -0.723417 -0.000000 -0.000000 -0.000000 -8.681071 26.382955 -0.542568 -2.194503 0.910786 18.519175 0.000000 0.000000 0.000000 -5.379794 7.947550 -19.688557 5.312921 -4.532431 15.747781 
-0.108505 0.747660 -1.400961 1.177460 -9.020656 -7.065495 -0.000000 0.000000 -0.000000 0.056711 -0.431829 -5.173008 2.676601 -1.984391 -5.892527 0.000000 0.000000 0.000000 3.063021 -1.256807 -5.828337 3.214404 -4.461194 -3.153238 1.673076 -1.556794 -6.386714 -16.481260 -0.489512 9.889278 -56.759779 15.298476 -5.834717 -0.609251 -22.955060 7.547786 2.087656 -1.624764 -3.289799 3.892484 6.211498 1.513144 66.791282 -1.372068 -7.526906 0.391377 46.910673 -0.723789 -0.000000 -0.000000 -0.000000 -8.044649 26.611747 0.075373 -2.341414 0.554936 18.229459 0.000000 -0.000000 0.000000 -4.583356 8.383923 -19.927719 5.520650 -4.767973 15.746422 
-0.240581 0.744288 -1.476394 0.961379 -10.153773 -6.997510 -0.000000 -0.000000 -0.000000 0.736546 -0.476929 -5.861678 2.866605 -1.988143 -5.760532 0.000000 0.000000 0.000000 3.196036 -1.196336 -5.721620 3.150824 -4.551882 -2.683868 1.872209 -1.496854 -6.206653 -15.899244 -0.618185 9.917837 -57.443377 15.707843 -6.529847 -0.647037 -23.545271 7.393298 2.266254 -1.580704 -3.259996 4.105517 6.361894 1.546107 66.533320 -1.519850 -7.453577 0.402167 47.199142 -0.725874 -0.000000 -0.000000 -0.000000 -7.412723 26.843406 0.725497 -2.481363 0.260993 17.928275 0.000000 -0.000000 0.000000 -3.845898 8.880334 -20.179843 5.715094 -4.957740 15.808609 
-0.325874 0.741116 -1.551838 0.840060 -11.699709 -6.944978 -0.000000 -0.000000 0.000000 1.320382 -0.515509 -6.452713 3.048950 -1.990834 -5.605307 0.000000 0.000000 0.000000 3.316935 -1.132134 -5.590699 3.043447 -4.655661 -2.056381 2.069062 -1.440786 -6.008265 -15.337449 -0.757218 9.929760 -58.064249 15.995810 -7.110524 -0.692573 -24.118792 7.236922 2.431248 -1.536788 -3.212119 4.364724 6.538775 1.586760 66.201425 -1.783248 -7.454697 0.420801 47.680691 -0.717487 -0.000000 -0.000000 -0.000000 -6.832251 26.966168 1.414092 -2.620069 0.058947 17.575754 0.000000 -0.000000 0.000000 -3.224240 9.415761 -20.453165 5.883314 -5.150062 15.963545 
